<?xml version="1.0" encoding="UTF-8"?>
<svg width="155px" height="45px" viewBox="0 0 155 45" version="1.1" xmlns="http://www.w3.org/2000/svg" xmlns:xlink="http://www.w3.org/1999/xlink">
    <!-- Generator: sketchtool 52.6 (67491) - http://www.bohemiancoding.com/sketch -->
    <title>EA8B67E6-E52A-4DA2-B423-FC1823FF577C</title>
    <desc>Created with sketchtool.</desc>
    <defs>
        <polygon id="path-1" points="0.31365 0.450691176 16.6866333 0.450691176 16.6866333 18.5046029 0.31365 18.5046029"></polygon>
        <polygon id="path-3" points="0.481376 0.516388235 13.519296 0.516388235 13.519296 9 0.481376 9"></polygon>
    </defs>
    <g id="Page-1" stroke="none" stroke-width="1" fill="none" fill-rule="evenodd">
        <g id="Desktop-HD" transform="translate(-120.000000, -26.000000)">
            <g id="Page-1" transform="translate(120.000000, 26.000000)">
                <path d="M85.5202206,17 C83.2901411,17 81.4415891,17.8240584 80.4089886,19.2699557 L80.4089886,17.8620085 C80.4089886,17.5952738 80.2154112,17.4076921 79.9385504,17.4076921 L77.4721264,17.4076921 C77.1947029,17.4076921 77,17.5952738 77,17.8620085 L77,33.5451414 C77,33.8140447 77.1947029,34 77.4721264,34 L79.9385504,34 C80.2154112,34 80.4089886,33.8140447 80.4089886,33.5451414 L80.4089886,24.3183978 C80.4089886,21.7703224 82.0752176,20.0604012 84.5585234,20.0604012 C87.1971414,20.0604012 88.5910114,21.5968364 88.5910114,24.5021845 L88.5910114,33.5451414 C88.5910114,33.8140447 88.786277,34 89.0614496,34 L91.5273109,34 C91.8064226,34 92,33.8140447 92,33.5451414 L92,23.7627005 C92,19.5914469 89.5178196,17 85.5202206,17" id="Fill-1" fill="#FFFFFF"></path>
                <path d="M116.83089,22.8292174 C117.435199,21.0388029 119.138511,20.0118651 121.196798,20.0118651 C123.255085,20.0118651 124.784601,21.0388029 125.388343,22.8292174 C125.573498,23.3757591 125.65642,24.0075052 125.65642,24.8718819 C125.65642,24.978948 125.445139,25.0159447 125.33609,25.0159447 L116.625288,25.0159447 C116.518512,25.0159447 116.478755,24.978948 116.478755,24.8718819 C116.478755,24.0075052 116.645735,23.3757591 116.83089,22.8292174 M121.021866,17 C117.374996,17 114.680594,18.8246084 113.632707,22.0057613 C113.22548,23.1694746 113,24.3600947 113,26.4263025 C113,27.5877737 113.184587,28.6797359 113.50378,29.7761826 L113.538994,29.8821276 C114.554506,33.0896266 117.439743,35 121.217245,35 C124.258102,35 126.933762,33.8407711 128.555287,31.822771 C128.745554,31.5850955 128.725675,31.3395721 128.504739,31.1657999 L126.908203,29.7419887 C126.686699,29.5682165 126.443044,29.5928809 126.202797,29.8311171 C125.40027,30.7442621 123.929821,31.8339821 121.487594,31.8339821 C119.18054,31.8339821 117.411345,30.8513282 116.736609,28.7940893 C116.616201,28.4246831 116.559405,27.9622248 116.559405,27.903927 C116.559405,27.7968609 116.59689,27.7604248 116.705939,27.7604248 L128.485428,27.7604248 C128.798942,27.7604248 129,27.5748809 129,27.288437 C129,24.373548 128.785311,23.1442496 128.412729,22.0057613 C127.350644,18.8246084 124.65681,17 121.021866,17" id="Fill-3" fill="#FFFFFF"></path>
                <path d="M136.555654,31.8426469 L135.866096,31.8426469 C134.658575,31.8426469 134.208933,31.3158621 134.208933,29.8999184 L134.208933,10.4698379 C134.208933,10.1935835 134.208933,9.9950606 134.1994,10.0000936 L131.445406,10.0000936 C131.183776,10.0000936 131,10.1935835 131,10.4698379 L131,30.0917307 C131,33.5326081 132.294907,35 135.322712,35 L136.555654,35 C136.816224,35 137,34.8076285 137,34.5313741 L137,32.3112728 C137,32.0355776 136.816224,31.8426469 136.555654,31.8426469" id="Fill-5" fill="#FFFFFF"></path>
                <g id="Group-9" transform="translate(138.000000, 17.000000)">
                    <mask id="mask-2" fill="white">
                        <use xlink:href="#path-1"></use>
                    </mask>
                    <g id="Clip-8"></g>
                    <path d="M7.42021667,15.5763676 C4.97675,15.5763676 3.63035,14.5894853 3.63035,12.7962206 C3.63035,10.7654559 4.98355,9.89927941 8.15631667,9.89927941 L11.8798833,9.89927941 C11.9869833,9.89927941 12.0243833,9.93727941 12.0243833,10.0434559 L12.0243833,12.06975 C12.0243833,14.2659265 10.30455,15.5763676 7.42021667,15.5763676 M16.2709833,15.5853088 C15.5790833,15.5853088 15.3903833,15.3930735 15.3439167,14.5749559 L15.3439167,6.87883824 C15.3439167,2.33169118 13.27445,0.450691176 7.96308333,0.450691176 C5.37908333,0.450691176 3.11468333,1.20342647 1.58071667,2.38198529 C1.38748333,2.56975 1.35971667,2.76757353 1.48778333,3.02295588 L2.53555,4.78269118 C2.67211667,5.00454412 2.97641667,5.02801471 3.20535,4.84751471 C4.46675,3.95842647 5.83808333,3.45380882 7.65368333,3.45380882 C11.28205,3.45380882 12.01305,4.83130882 12.0243833,7.02357353 C12.0238167,7.12639706 11.9869833,7.16327941 11.8798833,7.16327941 L7.65368333,7.16327941 C2.85118333,7.16327941 0.31365,9.15157353 0.31365,12.9107794 C0.31365,16.3598382 2.73841667,18.5046029 6.64501667,18.5046029 C9.07035,18.5046029 11.00835,17.7155441 12.0345833,16.3302206 C12.12525,17.7479559 12.5683833,18.2631912 14.41175,18.2631912 L16.6869167,18.2777206 L16.6869167,15.9966029 C16.6869167,15.7479265 16.5191833,15.5853088 16.2709833,15.5853088" id="Fill-7" fill="#FFFFFF" mask="url(#mask-2)"></path>
                </g>
                <path d="M107.621936,27.5672688 C107.621936,30.0927502 105.564321,32.1395565 103.024125,32.1395565 C100.48393,32.1395565 98.4263146,30.3586195 98.4263146,27.1433151 L98.4263146,26.6331336 C98.4240516,26.5452475 98.4223544,26.4551505 98.4223544,26.3606315 C98.4223544,26.2318424 98.4240516,26.1113445 98.4263146,25.9947158 L98.4263146,25.2225342 C98.4263146,22.0431582 100.48393,20.0516262 103.024125,20.0516262 C105.564321,20.0516262 107.621936,22.0995379 107.621936,24.6255721 L107.621936,27.5672688 Z M108.046245,10 C107.764504,10 107.569887,10.191249 107.569887,10.4637511 L107.569887,18.8013222 C106.716744,17.8119127 104.750779,17.2331911 102.52627,17.2331911 C99.226844,17.2331911 96.6193247,18.9173981 95.6462431,21.7866855 C95.1879895,23.1475381 94.9288783,24.4884919 95.0171345,26.2616905 C95.0810637,27.5285768 95.1636625,29.1834885 95.713001,30.5940879 C96.8524117,33.5175441 99.2042142,35 102.361638,35 C104.857705,35 106.772187,34.3671096 107.569887,33.2953415 L107.569887,34.1189281 C107.569887,34.3930885 107.764504,34.5826793 108.046245,34.5826793 L110.524208,34.5826793 C110.802555,34.5826793 111,34.3930885 111,34.1189281 L111,10.4637511 L111,10 L108.046245,10 Z" id="Fill-10" fill="#FFFFFF"></path>
                <path d="M64.5036797,26.0294295 L64.4976755,26.0294295 L60.8405905,26.0294295 L64.4976755,16.9534148 L64.4976755,16.9601097 L64.5009505,16.9545307 L64.5036797,16.9601097 L64.5036797,16.9534148 L68.1651313,26.0294295 L64.5036797,26.0294295 Z M74.7298718,34.0404017 L66.2197804,12.5124831 C66.030922,11.9529034 65.5407635,11 64.4976755,11 C63.456225,11 62.9693415,11.9529034 62.7788455,12.5124831 L54.2714833,34.0404017 C54.2714833,34.0510019 53.9439832,34.7690269 54.0083915,34.8610814 C54.0727999,34.9509043 54.1819666,35 54.3206084,35 L56.9307845,35 C57.1895097,35 57.3674514,34.8627551 57.493539,34.5603701 L59.5808066,29.3272119 L64.4976755,29.3272119 L64.5036797,29.3272119 L69.4052652,29.3272119 L71.5078162,34.5603701 C71.6317204,34.8627551 71.8096622,35 72.0705706,35 L74.6807468,35 C74.8172052,35 74.9285552,34.9509043 74.9913261,34.8610814 C75.0568261,34.7690269 74.7298718,34.0510019 74.7298718,34.0404017 Z" id="Fill-12" fill="#FFFFFF"></path>
                <path d="M25.2667297,9 L22.5,5.57789979 L19.732712,9 L16,6.96100331 C16,6.96100331 20.4725539,1.63973295 20.9320935,1.09390404 C21.3843742,0.555936857 21.8053861,0.0202158857 22.4932995,0.00224620952 L22.4932995,0 L22.5,0.00112310476 C22.5022335,0.00112310476 22.504467,0 22.5089339,0 L22.5089339,0.00224620952 C23.1957306,0.0202158857 23.6150674,0.555936857 24.0679065,1.09390404 C24.5274461,1.63973295 29,6.96100331 29,6.96100331 L25.2667297,9 Z" id="Fill-14" fill="#FFFFFF"></path>
                <g id="Group-18" transform="translate(16.000000, 36.000000)">
                    <mask id="mask-4" fill="white">
                        <use xlink:href="#path-3"></use>
                    </mask>
                    <g id="Clip-17"></g>
                    <path d="M0.481376,2.43762353 C0.481376,2.43762353 4.967536,7.45538824 5.428416,7.97209412 C5.881456,8.47556471 6.302576,8.98062353 6.992496,8.99915294 L6.992496,9.00021176 C6.994176,8.99915294 6.998096,8.99915294 6.998096,8.99915294 C6.998096,8.99915294 7.004256,8.99915294 7.008176,9.00021176 L7.008176,8.99915294 C7.696976,8.98062353 8.119216,8.47556471 8.573376,7.97209412 C9.033136,7.45538824 13.519296,2.43762353 13.519296,2.43762353 L9.775136,0.516388235 L7.000336,3.74315294 L4.223856,0.516388235 L0.481376,2.43762353 Z" id="Fill-16" fill="#FFFFFF" mask="url(#mask-4)"></path>
                </g>
                <path d="M14.7785464,10.8157927 L10.3603906,10.3605912 L10.8156083,14.7785899 L6.69037507,16 C6.69037507,16 6.10396427,9.00855808 6.04458805,8.29041417 C5.98577732,7.58357962 5.90604355,6.90049471 6.38557717,6.39553211 L6.3838807,6.39383571 C6.38557717,6.3921393 6.38953558,6.38931196 6.38953558,6.38931196 C6.39066656,6.38818103 6.39179753,6.38591916 6.39462497,6.38309182 L6.39632144,6.38422276 C6.901302,5.90527166 7.58328024,5.98613354 8.29013993,6.04494217 C9.00774389,6.10431627 16,6.69127168 16,6.69127168 L14.7785464,10.8157927 Z" id="Fill-19" fill="#FFFFFF"></path>
                <path d="M29,38.3089133 C29,38.3089133 35.9929791,38.8952436 36.7122375,38.9563079 C37.4156632,39.0134144 38.0976017,39.094268 38.6042492,38.6153656 L38.6048146,38.615931 C38.6059455,38.6136694 38.6082073,38.6114077 38.6099037,38.6097115 C38.6099037,38.6097115 38.6132964,38.606319 38.6161237,38.6046228 L38.6155583,38.6040574 C39.0933675,38.0985807 39.013073,37.4161306 38.9576584,36.7104987 C38.8954584,35.9929932 38.3085163,29 38.3085163,29 L34.1846547,30.2224168 L34.6404113,34.6410974 L30.2208168,34.1859422 L29,38.3089133 Z" id="Fill-21" fill="#FFFFFF"></path>
                <path d="M9,19.7323139 L5.57789979,22.4997208 L9,25.2676861 L6.96156486,29 C6.96156486,29 1.63973295,24.527254 1.09390404,24.0676947 C0.555936857,23.6148361 0.0202158857,23.1943645 0.00224620952,22.5064215 L0,22.5064215 C0,22.504188 0.00112310476,22.4997208 0.00112310476,22.4997208 C0.00112310476,22.4974872 0,22.4952536 0,22.4907865 L0.00224620952,22.4907865 C0.0202158857,21.8039603 0.555936857,21.3840471 1.09334248,20.9311885 C1.63973295,20.4721876 6.96156486,16 6.96156486,16 L9,19.7323139 Z" id="Fill-23" fill="#FFFFFF"></path>
                <path d="M38.0376935,29 C38.0376935,29 43.361645,24.5261372 43.9098228,24.0665779 C44.4439591,23.6148361 44.9797803,23.1954813 44.9994383,22.5075383 L45,22.5075383 C44.9994383,22.5053048 44.9994383,22.501396 44.9994383,22.4997208 C44.9994383,22.4997208 44.9994383,22.4952536 45,22.4919033 L44.9994383,22.4913449 C44.9797803,21.8050771 44.4439591,21.3840471 43.9098228,20.9306301 C43.361645,20.472746 38.0376935,16 38.0376935,16 L36,19.7328723 L39.4233025,22.4997208 L36,25.2682445 L38.0376935,29 Z" id="Fill-25" fill="#FFFFFF"></path>
                <path d="M10.8155204,30.2213845 L10.3603446,34.639856 L14.7780935,34.1846641 L16,38.309664 C16,38.309664 9.00838797,38.8960416 8.2908501,38.9554145 C7.58349008,39.0142219 6.90044379,39.0939511 6.39550974,38.6144446 L6.39381344,38.616141 C6.39211713,38.6144446 6.38928995,38.6104864 6.38928995,38.6104864 C6.38815908,38.6087901 6.38589734,38.6082246 6.38250472,38.6053973 L6.38420103,38.6031355 C5.90527702,38.098749 5.98613432,37.4168093 6.04493963,36.7099896 C6.10431037,35.9924262 6.6912326,29 6.6912326,29 L10.8155204,30.2213845 Z" id="Fill-27" fill="#FFFFFF"></path>
                <path d="M38.3083088,16 C38.3083088,16 38.8952377,9.00713466 38.9563055,8.28732245 C39.0134151,7.58390817 39.0942734,6.90198081 38.6153439,6.39590703 L38.6159093,6.39477614 C38.614213,6.39421069 38.6113858,6.39138347 38.6102549,6.39025257 C38.6102549,6.39025257 38.6068622,6.3868599 38.6046005,6.38403267 L38.604035,6.38403267 C38.0985297,5.90623117 37.4154756,5.98708989 36.7103692,6.04250355 C35.9928231,6.10470256 29,6.69106962 29,6.69106962 L30.2219205,10.8154296 L34.6402855,10.3596805 L34.18567,14.7786376 L38.3083088,16 Z" id="Fill-29" fill="#FFFFFF"></path>
            </g>
        </g>
    </g>
</svg>